<svg width="200" height="41" viewBox="0 0 200 41" fill="none" xmlns="http://www.w3.org/2000/svg">
<path d="M6.82102 0.727272H12.4972L20.4744 33.3267H20.9347L39.6506 0.727272H45.3267L38.8068 40H34.358L39.3438 10.1619H38.9602L21.7017 40H17.4062L10.1193 10.1619H9.7358L4.75 40H0.301136L6.82102 0.727272ZM51.487 0.727272H56.9331L64.8336 19.0597H65.2939L79.1774 0.727272H84.6234L66.5978 23.8153L63.9132 40H59.1575L61.8422 23.8153L51.487 0.727272ZM106.153 12.5014C106.026 11.0952 105.457 10.0021 104.447 9.2223C103.45 8.42969 102.024 8.03338 100.17 8.03338C98.9432 8.03338 97.9205 8.19318 97.1023 8.51278C96.2841 8.83239 95.6705 9.27344 95.2614 9.83594C94.8523 10.3857 94.6413 11.0185 94.6286 11.7344C94.603 12.3224 94.718 12.8402 94.9737 13.2876C95.2422 13.7351 95.6257 14.1314 96.1243 14.4766C96.6357 14.8089 97.2493 15.103 97.9652 15.3587C98.6811 15.6143 99.4865 15.8381 100.381 16.0298L103.756 16.7969C105.7 17.2188 107.413 17.7812 108.896 18.4844C110.391 19.1875 111.644 20.0249 112.654 20.9964C113.677 21.968 114.45 23.0866 114.974 24.3523C115.499 25.6179 115.767 27.0369 115.78 28.6094C115.767 31.0895 115.141 33.218 113.901 34.995C112.661 36.772 110.877 38.1335 108.55 39.0795C106.237 40.0256 103.443 40.4986 100.17 40.4986C96.8849 40.4986 94.0213 40.0064 91.5795 39.022C89.1378 38.0376 87.2393 36.5419 85.8842 34.5348C84.5291 32.5277 83.8324 29.9901 83.794 26.9219H92.8835C92.9602 28.1875 93.299 29.2422 93.8999 30.0859C94.5007 30.9297 95.3253 31.5689 96.3736 32.0036C97.4347 32.4382 98.6619 32.6555 100.055 32.6555C101.334 32.6555 102.42 32.483 103.315 32.1378C104.223 31.7926 104.92 31.3132 105.406 30.6996C105.891 30.0859 106.141 29.3828 106.153 28.5902C106.141 27.8487 105.911 27.2159 105.463 26.6918C105.016 26.1548 104.325 25.6946 103.392 25.3111C102.472 24.9148 101.295 24.5504 99.8636 24.218L95.7599 23.2592C92.3594 22.4794 89.6811 21.2202 87.7251 19.4815C85.7692 17.7301 84.7976 15.3651 84.8104 12.3864C84.7976 9.95739 85.4496 7.82883 86.7663 6.00071C88.0831 4.17258 89.9048 2.74716 92.2315 1.72443C94.5582 0.701704 97.2109 0.190339 100.19 0.190339C103.232 0.190339 105.872 0.708095 108.109 1.74361C110.359 2.76633 112.104 4.20455 113.344 6.05824C114.585 7.91193 115.217 10.0597 115.243 12.5014H106.153ZM130.066 0.727272V40H120.574V0.727272H130.066ZM134.74 8.43608V0.727272H167.934V8.43608H156.026V40H146.668V8.43608H134.74ZM172.57 40V0.727272H199.953V8.43608H182.062V16.4901H198.554V24.218H182.062V32.2912H199.953V40H172.57Z" fill="#EAEAEA"/>
</svg>
