<svg width="276" height="70" viewBox="0 0 276 70" fill="none" xmlns="http://www.w3.org/2000/svg">
<g filter="url(#filter0_d_602_575)">
<rect x="4" width="268" height="62" rx="20" fill="#0090FD"/>
</g>
<path d="M82.7301 26.0597C82.5653 25.5426 82.3438 25.0795 82.0653 24.6705C81.7926 24.2557 81.4659 23.9034 81.0852 23.6136C80.7045 23.3182 80.2699 23.0937 79.7812 22.9403C79.2983 22.7869 78.767 22.7102 78.1875 22.7102C77.2045 22.7102 76.3182 22.9631 75.5284 23.4688C74.7386 23.9744 74.1136 24.7159 73.6534 25.6932C73.1989 26.6648 72.9716 27.8551 72.9716 29.2642C72.9716 30.679 73.2017 31.875 73.6619 32.8523C74.1222 33.8295 74.7528 34.571 75.554 35.0767C76.3551 35.5824 77.267 35.8352 78.2898 35.8352C79.2386 35.8352 80.0653 35.642 80.7699 35.2557C81.4801 34.8693 82.0284 34.3239 82.4148 33.6193C82.8068 32.9091 83.0028 32.0739 83.0028 31.1136L83.6847 31.2415H78.6903V29.0682H85.5511V31.054C85.5511 32.5199 85.2386 33.7926 84.6136 34.8722C83.9943 35.946 83.1364 36.7756 82.0398 37.3608C80.9489 37.946 79.6989 38.2386 78.2898 38.2386C76.7102 38.2386 75.3239 37.875 74.1307 37.1477C72.9432 36.4205 72.017 35.3892 71.3523 34.054C70.6875 32.7131 70.3551 31.1222 70.3551 29.2812C70.3551 27.8892 70.5483 26.6392 70.9347 25.5312C71.321 24.4233 71.8636 23.483 72.5625 22.7102C73.267 21.9318 74.0938 21.3381 75.0426 20.929C75.9972 20.5142 77.0398 20.3068 78.1705 20.3068C79.1136 20.3068 79.9915 20.446 80.804 20.7244C81.6222 21.0028 82.3494 21.3977 82.9858 21.9091C83.6278 22.4205 84.1591 23.0284 84.5795 23.733C85 24.4318 85.2841 25.2074 85.4318 26.0597H82.7301ZM94.3317 38.2642C93.0419 38.2642 91.9311 37.9886 90.9993 37.4375C90.0732 36.8807 89.3572 36.0994 88.8516 35.0938C88.3516 34.0824 88.1016 32.8977 88.1016 31.5398C88.1016 30.1989 88.3516 29.017 88.8516 27.9943C89.3572 26.9716 90.0618 26.1733 90.9652 25.5994C91.8743 25.0256 92.9368 24.7386 94.1527 24.7386C94.8913 24.7386 95.6072 24.8608 96.3004 25.1051C96.9936 25.3494 97.6158 25.733 98.1669 26.2557C98.718 26.7784 99.1527 27.4574 99.4709 28.2926C99.7891 29.1222 99.9482 30.1307 99.9482 31.3182V32.2216H89.5419V30.3125H97.451C97.451 29.642 97.3146 29.0483 97.0419 28.5312C96.7692 28.0085 96.3857 27.5966 95.8913 27.2955C95.4027 26.9943 94.8288 26.8438 94.1697 26.8438C93.4538 26.8438 92.8288 27.0199 92.2947 27.3722C91.7663 27.7187 91.3572 28.1733 91.0675 28.7358C90.7834 29.2926 90.6413 29.8977 90.6413 30.5511V32.0426C90.6413 32.9176 90.7947 33.6619 91.1016 34.2756C91.4141 34.8892 91.8487 35.358 92.4055 35.6818C92.9624 36 93.6129 36.1591 94.3572 36.1591C94.8402 36.1591 95.2805 36.0909 95.6783 35.9545C96.076 35.8125 96.4197 35.6023 96.7095 35.3239C96.9993 35.0455 97.2209 34.7017 97.3743 34.2926L99.7862 34.7273C99.593 35.4375 99.2464 36.0597 98.7464 36.5938C98.2521 37.1222 97.63 37.5341 96.88 37.8295C96.1357 38.1193 95.2862 38.2642 94.3317 38.2642ZM108.886 24.9091V26.9545H101.736V24.9091H108.886ZM103.653 21.7727H106.202V34.1562C106.202 34.6506 106.276 35.0227 106.423 35.2727C106.571 35.517 106.761 35.6847 106.994 35.7756C107.233 35.8608 107.491 35.9034 107.77 35.9034C107.974 35.9034 108.153 35.8892 108.307 35.8608C108.46 35.8324 108.58 35.8097 108.665 35.7926L109.125 37.8977C108.977 37.9545 108.767 38.0114 108.494 38.0682C108.222 38.1307 107.881 38.1648 107.472 38.1705C106.801 38.1818 106.176 38.0625 105.597 37.8125C105.017 37.5625 104.548 37.1761 104.19 36.6534C103.832 36.1307 103.653 35.4744 103.653 34.6847V21.7727ZM127.781 25.1307C127.69 24.3239 127.315 23.6989 126.656 23.2557C125.997 22.8068 125.168 22.5824 124.168 22.5824C123.452 22.5824 122.832 22.696 122.31 22.9233C121.787 23.1449 121.381 23.4517 121.091 23.8438C120.807 24.2301 120.665 24.6705 120.665 25.1648C120.665 25.5795 120.761 25.9375 120.955 26.2386C121.153 26.5398 121.412 26.7926 121.73 26.9972C122.054 27.196 122.401 27.3636 122.77 27.5C123.139 27.6307 123.494 27.7386 123.835 27.8239L125.54 28.267C126.097 28.4034 126.668 28.5881 127.253 28.821C127.838 29.054 128.381 29.3608 128.881 29.7415C129.381 30.1222 129.784 30.5938 130.091 31.1562C130.403 31.7188 130.56 32.392 130.56 33.1761C130.56 34.1648 130.304 35.0426 129.793 35.8097C129.287 36.5767 128.551 37.1818 127.585 37.625C126.625 38.0682 125.463 38.2898 124.099 38.2898C122.793 38.2898 121.662 38.0824 120.707 37.6676C119.753 37.2528 119.006 36.6648 118.466 35.9034C117.926 35.1364 117.628 34.2273 117.571 33.1761H120.213C120.264 33.8068 120.469 34.3324 120.827 34.7528C121.19 35.1676 121.653 35.4773 122.216 35.6818C122.784 35.8807 123.406 35.9801 124.082 35.9801C124.827 35.9801 125.489 35.8636 126.068 35.6307C126.653 35.392 127.114 35.0625 127.449 34.642C127.784 34.2159 127.952 33.7187 127.952 33.1506C127.952 32.6335 127.804 32.2102 127.509 31.8807C127.219 31.5511 126.824 31.2784 126.324 31.0625C125.83 30.8466 125.27 30.6562 124.645 30.4915L122.582 29.929C121.185 29.5483 120.077 28.9886 119.259 28.25C118.446 27.5114 118.04 26.5341 118.04 25.3182C118.04 24.3125 118.313 23.4347 118.858 22.6847C119.403 21.9347 120.142 21.3523 121.074 20.9375C122.006 20.517 123.057 20.3068 124.227 20.3068C125.409 20.3068 126.452 20.5142 127.355 20.929C128.264 21.3438 128.98 21.9148 129.503 22.642C130.026 23.3636 130.298 24.1932 130.321 25.1307H127.781ZM139.613 24.9091V26.9545H132.462V24.9091H139.613ZM134.38 21.7727H136.928V34.1562C136.928 34.6506 137.002 35.0227 137.15 35.2727C137.298 35.517 137.488 35.6847 137.721 35.7756C137.96 35.8608 138.218 35.9034 138.496 35.9034C138.701 35.9034 138.88 35.8892 139.033 35.8608C139.187 35.8324 139.306 35.8097 139.391 35.7926L139.852 37.8977C139.704 37.9545 139.494 38.0114 139.221 38.0682C138.948 38.1307 138.607 38.1648 138.198 38.1705C137.528 38.1818 136.903 38.0625 136.323 37.8125C135.744 37.5625 135.275 37.1761 134.917 36.6534C134.559 36.1307 134.38 35.4744 134.38 34.6847V21.7727ZM146.241 38.2898C145.412 38.2898 144.662 38.1364 143.991 37.8295C143.321 37.517 142.79 37.0653 142.398 36.4744C142.011 35.8835 141.818 35.1591 141.818 34.3011C141.818 33.5625 141.96 32.9545 142.244 32.4773C142.528 32 142.912 31.6222 143.395 31.3438C143.878 31.0653 144.418 30.8551 145.014 30.7131C145.611 30.571 146.219 30.4631 146.838 30.3892C147.622 30.2983 148.259 30.2244 148.747 30.1676C149.236 30.1051 149.591 30.0057 149.812 29.8693C150.034 29.733 150.145 29.5114 150.145 29.2045V29.1449C150.145 28.4006 149.935 27.8239 149.514 27.4148C149.099 27.0057 148.48 26.8011 147.656 26.8011C146.798 26.8011 146.122 26.9915 145.628 27.3722C145.139 27.7472 144.801 28.1648 144.614 28.625L142.219 28.0795C142.503 27.2841 142.918 26.642 143.463 26.1534C144.014 25.6591 144.648 25.3011 145.364 25.0795C146.08 24.8523 146.832 24.7386 147.622 24.7386C148.145 24.7386 148.699 24.8011 149.284 24.9261C149.875 25.0455 150.426 25.267 150.938 25.5909C151.455 25.9148 151.878 26.3778 152.207 26.9801C152.537 27.5767 152.702 28.3523 152.702 29.3068V38H150.213V36.2102H150.111C149.946 36.5398 149.699 36.8636 149.369 37.1818C149.04 37.5 148.616 37.7642 148.099 37.9744C147.582 38.1847 146.963 38.2898 146.241 38.2898ZM146.795 36.2443C147.5 36.2443 148.102 36.1051 148.602 35.8267C149.108 35.5483 149.491 35.1847 149.753 34.7358C150.02 34.2812 150.153 33.7955 150.153 33.2784V31.5909C150.063 31.6818 149.886 31.767 149.625 31.8466C149.369 31.9205 149.077 31.9858 148.747 32.0426C148.418 32.0937 148.097 32.142 147.784 32.1875C147.472 32.2273 147.21 32.2614 147 32.2898C146.506 32.3523 146.054 32.4574 145.645 32.6051C145.241 32.7528 144.918 32.9659 144.673 33.2443C144.435 33.517 144.315 33.8807 144.315 34.3352C144.315 34.9659 144.548 35.4432 145.014 35.767C145.48 36.0852 146.074 36.2443 146.795 36.2443ZM156.096 38V24.9091H158.559V26.9886H158.695C158.934 26.2841 159.354 25.7301 159.957 25.3267C160.565 24.9176 161.252 24.7131 162.019 24.7131C162.178 24.7131 162.366 24.7187 162.582 24.7301C162.803 24.7415 162.977 24.7557 163.102 24.7727V27.2102C162.999 27.1818 162.817 27.1506 162.556 27.1165C162.295 27.0767 162.033 27.0568 161.772 27.0568C161.17 27.0568 160.633 27.1847 160.161 27.4403C159.695 27.6903 159.326 28.0398 159.053 28.4886C158.781 28.9318 158.644 29.4375 158.644 30.0057V38H156.096ZM172.191 24.9091V26.9545H165.04V24.9091H172.191ZM166.958 21.7727H169.506V34.1562C169.506 34.6506 169.58 35.0227 169.728 35.2727C169.876 35.517 170.066 35.6847 170.299 35.7756C170.538 35.8608 170.796 35.9034 171.075 35.9034C171.279 35.9034 171.458 35.8892 171.612 35.8608C171.765 35.8324 171.884 35.8097 171.969 35.7926L172.43 37.8977C172.282 37.9545 172.072 38.0114 171.799 38.0682C171.526 38.1307 171.185 38.1648 170.776 38.1705C170.106 38.1818 169.481 38.0625 168.901 37.8125C168.322 37.5625 167.853 37.1761 167.495 36.6534C167.137 36.1307 166.958 35.4744 166.958 34.6847V21.7727ZM180.511 38.2642C179.222 38.2642 178.111 37.9886 177.179 37.4375C176.253 36.8807 175.537 36.0994 175.031 35.0938C174.531 34.0824 174.281 32.8977 174.281 31.5398C174.281 30.1989 174.531 29.017 175.031 27.9943C175.537 26.9716 176.241 26.1733 177.145 25.5994C178.054 25.0256 179.116 24.7386 180.332 24.7386C181.071 24.7386 181.787 24.8608 182.48 25.1051C183.173 25.3494 183.795 25.733 184.347 26.2557C184.898 26.7784 185.332 27.4574 185.651 28.2926C185.969 29.1222 186.128 30.1307 186.128 31.3182V32.2216H175.722V30.3125H183.631C183.631 29.642 183.494 29.0483 183.222 28.5312C182.949 28.0085 182.565 27.5966 182.071 27.2955C181.582 26.9943 181.009 26.8438 180.349 26.8438C179.634 26.8438 179.009 27.0199 178.474 27.3722C177.946 27.7187 177.537 28.1733 177.247 28.7358C176.963 29.2926 176.821 29.8977 176.821 30.5511V32.0426C176.821 32.9176 176.974 33.6619 177.281 34.2756C177.594 34.8892 178.028 35.358 178.585 35.6818C179.142 36 179.793 36.1591 180.537 36.1591C181.02 36.1591 181.46 36.0909 181.858 35.9545C182.256 35.8125 182.599 35.6023 182.889 35.3239C183.179 35.0455 183.401 34.7017 183.554 34.2926L185.966 34.7273C185.773 35.4375 185.426 36.0597 184.926 36.5938C184.432 37.1222 183.81 37.5341 183.06 37.8295C182.315 38.1193 181.466 38.2642 180.511 38.2642ZM193.856 38.2557C192.799 38.2557 191.856 37.9858 191.026 37.446C190.202 36.9006 189.555 36.125 189.083 35.1193C188.617 34.108 188.384 32.8949 188.384 31.4801C188.384 30.0653 188.62 28.8551 189.092 27.8494C189.569 26.8437 190.222 26.0739 191.052 25.5398C191.881 25.0057 192.822 24.7386 193.873 24.7386C194.685 24.7386 195.339 24.875 195.833 25.1477C196.333 25.4148 196.719 25.7273 196.992 26.0852C197.271 26.4432 197.487 26.7585 197.64 27.0312H197.793V20.5455H200.342V38H197.853V35.9631H197.64C197.487 36.2415 197.265 36.5597 196.975 36.9176C196.691 37.2756 196.299 37.5881 195.799 37.8551C195.299 38.1222 194.651 38.2557 193.856 38.2557ZM194.418 36.0824C195.151 36.0824 195.771 35.8892 196.276 35.5028C196.788 35.1108 197.174 34.5682 197.435 33.875C197.702 33.1818 197.836 32.375 197.836 31.4545C197.836 30.5455 197.705 29.75 197.444 29.0682C197.183 28.3864 196.799 27.8551 196.293 27.4744C195.788 27.0937 195.163 26.9034 194.418 26.9034C193.651 26.9034 193.012 27.1023 192.501 27.5C191.989 27.8977 191.603 28.4403 191.342 29.1278C191.086 29.8153 190.958 30.5909 190.958 31.4545C190.958 32.3295 191.089 33.1165 191.35 33.8153C191.612 34.5142 191.998 35.0682 192.509 35.4773C193.026 35.8807 193.663 36.0824 194.418 36.0824Z" fill="white"/>
<defs>
<filter id="filter0_d_602_575" x="0" y="0" width="276" height="70" filterUnits="userSpaceOnUse" color-interpolation-filters="sRGB">
<feFlood flood-opacity="0" result="BackgroundImageFix"/>
<feColorMatrix in="SourceAlpha" type="matrix" values="0 0 0 0 0 0 0 0 0 0 0 0 0 0 0 0 0 0 127 0" result="hardAlpha"/>
<feOffset dy="4"/>
<feGaussianBlur stdDeviation="2"/>
<feComposite in2="hardAlpha" operator="out"/>
<feColorMatrix type="matrix" values="0 0 0 0 0 0 0 0 0 0 0 0 0 0 0 0 0 0 0.25 0"/>
<feBlend mode="normal" in2="BackgroundImageFix" result="effect1_dropShadow_602_575"/>
<feBlend mode="normal" in="SourceGraphic" in2="effect1_dropShadow_602_575" result="shape"/>
</filter>
</defs>
</svg>
