<svg width="276" height="70" viewBox="0 0 276 70" fill="none" xmlns="http://www.w3.org/2000/svg">
<g filter="url(#filter0_d_602_481)">
<rect x="4" width="268" height="62" rx="20" fill="#0090FD"/>
</g>
<path d="M70.9176 41V23.5455H73.5511V38.733H81.4602V41H70.9176ZM89.902 41.2642C88.6122 41.2642 87.5014 40.9886 86.5696 40.4375C85.6435 39.8807 84.9276 39.0994 84.4219 38.0938C83.9219 37.0824 83.6719 35.8977 83.6719 34.5398C83.6719 33.1989 83.9219 32.017 84.4219 30.9943C84.9276 29.9716 85.6321 29.1733 86.5355 28.5994C87.4446 28.0256 88.5071 27.7386 89.723 27.7386C90.4616 27.7386 91.1776 27.8608 91.8707 28.1051C92.5639 28.3494 93.1861 28.733 93.7372 29.2557C94.2884 29.7784 94.723 30.4574 95.0412 31.2926C95.3594 32.1222 95.5185 33.1307 95.5185 34.3182V35.2216H85.1122V33.3125H93.0213C93.0213 32.642 92.8849 32.0483 92.6122 31.5312C92.3395 31.0085 91.956 30.5966 91.4616 30.2955C90.973 29.9943 90.3991 29.8438 89.7401 29.8438C89.0241 29.8438 88.3991 30.0199 87.8651 30.3722C87.3366 30.7187 86.9276 31.1733 86.6378 31.7358C86.3537 32.2926 86.2116 32.8977 86.2116 33.5511V35.0426C86.2116 35.9176 86.3651 36.6619 86.6719 37.2756C86.9844 37.8892 87.419 38.358 87.9759 38.6818C88.5327 39 89.1832 39.1591 89.9276 39.1591C90.4105 39.1591 90.8509 39.0909 91.2486 38.9545C91.6463 38.8125 91.9901 38.6023 92.2798 38.3239C92.5696 38.0455 92.7912 37.7017 92.9446 37.2926L95.3565 37.7273C95.1634 38.4375 94.8168 39.0597 94.3168 39.5938C93.8224 40.1222 93.2003 40.5341 92.4503 40.8295C91.706 41.1193 90.8565 41.2642 89.902 41.2642ZM102.156 41.2898C101.326 41.2898 100.576 41.1364 99.9055 40.8295C99.2351 40.517 98.7038 40.0653 98.3118 39.4744C97.9254 38.8835 97.7322 38.1591 97.7322 37.3011C97.7322 36.5625 97.8743 35.9545 98.1584 35.4773C98.4425 35 98.826 34.6222 99.3089 34.3438C99.7919 34.0653 100.332 33.8551 100.928 33.7131C101.525 33.571 102.133 33.4631 102.752 33.3892C103.536 33.2983 104.173 33.2244 104.661 33.1676C105.15 33.1051 105.505 33.0057 105.727 32.8693C105.948 32.733 106.059 32.5114 106.059 32.2045V32.1449C106.059 31.4006 105.849 30.8239 105.428 30.4148C105.013 30.0057 104.394 29.8011 103.57 29.8011C102.712 29.8011 102.036 29.9915 101.542 30.3722C101.053 30.7472 100.715 31.1648 100.528 31.625L98.1328 31.0795C98.4169 30.2841 98.8317 29.642 99.3771 29.1534C99.9283 28.6591 100.562 28.3011 101.278 28.0795C101.994 27.8523 102.746 27.7386 103.536 27.7386C104.059 27.7386 104.613 27.8011 105.198 27.9261C105.789 28.0455 106.34 28.267 106.852 28.5909C107.369 28.9148 107.792 29.3778 108.121 29.9801C108.451 30.5767 108.616 31.3523 108.616 32.3068V41H106.127V39.2102H106.025C105.86 39.5398 105.613 39.8636 105.283 40.1818C104.954 40.5 104.531 40.7642 104.013 40.9744C103.496 41.1847 102.877 41.2898 102.156 41.2898ZM102.71 39.2443C103.414 39.2443 104.016 39.1051 104.516 38.8267C105.022 38.5483 105.406 38.1847 105.667 37.7358C105.934 37.2812 106.067 36.7955 106.067 36.2784V34.5909C105.977 34.6818 105.8 34.767 105.539 34.8466C105.283 34.9205 104.991 34.9858 104.661 35.0426C104.332 35.0937 104.011 35.142 103.698 35.1875C103.386 35.2273 103.124 35.2614 102.914 35.2898C102.42 35.3523 101.968 35.4574 101.559 35.6051C101.156 35.7528 100.832 35.9659 100.587 36.2443C100.349 36.517 100.229 36.8807 100.229 37.3352C100.229 37.9659 100.462 38.4432 100.928 38.767C101.394 39.0852 101.988 39.2443 102.71 39.2443ZM112.01 41V27.9091H114.473V29.9886H114.609C114.848 29.2841 115.268 28.7301 115.871 28.3267C116.479 27.9176 117.166 27.7131 117.933 27.7131C118.092 27.7131 118.28 27.7187 118.496 27.7301C118.717 27.7415 118.891 27.7557 119.016 27.7727V30.2102C118.913 30.1818 118.732 30.1506 118.47 30.1165C118.209 30.0767 117.947 30.0568 117.686 30.0568C117.084 30.0568 116.547 30.1847 116.075 30.4403C115.609 30.6903 115.24 31.0398 114.967 31.4886C114.695 31.9318 114.558 32.4375 114.558 33.0057V41H112.01ZM123.769 33.2273V41H121.221V27.9091H123.667V30.0398H123.829C124.13 29.3466 124.602 28.7898 125.244 28.3693C125.891 27.9489 126.707 27.7386 127.69 27.7386C128.582 27.7386 129.363 27.9261 130.033 28.3011C130.704 28.6705 131.224 29.2216 131.593 29.9545C131.962 30.6875 132.147 31.5937 132.147 32.6733V41H129.599V32.9801C129.599 32.0312 129.352 31.2898 128.857 30.7557C128.363 30.2159 127.684 29.946 126.82 29.946C126.229 29.946 125.704 30.0739 125.244 30.3295C124.789 30.5852 124.428 30.9602 124.161 31.4545C123.9 31.9432 123.769 32.5341 123.769 33.2273ZM142.121 23.5455H145.317L150.874 37.1136H151.078L156.635 23.5455H159.831V41H157.325V28.3693H157.163L152.016 40.9744H149.936L144.788 28.3608H144.626V41H142.121V23.5455ZM168.969 41.2642C167.742 41.2642 166.671 40.983 165.756 40.4205C164.842 39.858 164.131 39.071 163.626 38.0597C163.12 37.0483 162.867 35.8665 162.867 34.5142C162.867 33.1562 163.12 31.9687 163.626 30.9517C164.131 29.9347 164.842 29.1449 165.756 28.5824C166.671 28.0199 167.742 27.7386 168.969 27.7386C170.197 27.7386 171.268 28.0199 172.183 28.5824C173.097 29.1449 173.808 29.9347 174.313 30.9517C174.819 31.9687 175.072 33.1562 175.072 34.5142C175.072 35.8665 174.819 37.0483 174.313 38.0597C173.808 39.071 173.097 39.858 172.183 40.4205C171.268 40.983 170.197 41.2642 168.969 41.2642ZM168.978 39.125C169.773 39.125 170.433 38.9148 170.955 38.4943C171.478 38.0739 171.864 37.5142 172.114 36.8153C172.37 36.1165 172.498 35.3466 172.498 34.5057C172.498 33.6705 172.37 32.9034 172.114 32.2045C171.864 31.5 171.478 30.9347 170.955 30.5085C170.433 30.0824 169.773 29.8693 168.978 29.8693C168.177 29.8693 167.512 30.0824 166.984 30.5085C166.461 30.9347 166.072 31.5 165.816 32.2045C165.566 32.9034 165.441 33.6705 165.441 34.5057C165.441 35.3466 165.566 36.1165 165.816 36.8153C166.072 37.5142 166.461 38.0739 166.984 38.4943C167.512 38.9148 168.177 39.125 168.978 39.125ZM177.916 41V27.9091H180.379V29.9886H180.516C180.754 29.2841 181.175 28.7301 181.777 28.3267C182.385 27.9176 183.072 27.7131 183.839 27.7131C183.999 27.7131 184.186 27.7187 184.402 27.7301C184.624 27.7415 184.797 27.7557 184.922 27.7727V30.2102C184.82 30.1818 184.638 30.1506 184.376 30.1165C184.115 30.0767 183.854 30.0568 183.592 30.0568C182.99 30.0568 182.453 30.1847 181.982 30.4403C181.516 30.6903 181.146 31.0398 180.874 31.4886C180.601 31.9318 180.464 32.4375 180.464 33.0057V41H177.916ZM192.3 41.2642C191.011 41.2642 189.9 40.9886 188.968 40.4375C188.042 39.8807 187.326 39.0994 186.82 38.0938C186.32 37.0824 186.07 35.8977 186.07 34.5398C186.07 33.1989 186.32 32.017 186.82 30.9943C187.326 29.9716 188.031 29.1733 188.934 28.5994C189.843 28.0256 190.906 27.7386 192.121 27.7386C192.86 27.7386 193.576 27.8608 194.269 28.1051C194.962 28.3494 195.585 28.733 196.136 29.2557C196.687 29.7784 197.121 30.4574 197.44 31.2926C197.758 32.1222 197.917 33.1307 197.917 34.3182V35.2216H187.511V33.3125H195.42C195.42 32.642 195.283 32.0483 195.011 31.5312C194.738 31.0085 194.354 30.5966 193.86 30.2955C193.371 29.9943 192.798 29.8438 192.138 29.8438C191.423 29.8438 190.798 30.0199 190.263 30.3722C189.735 30.7187 189.326 31.1733 189.036 31.7358C188.752 32.2926 188.61 32.8977 188.61 33.5511V35.0426C188.61 35.9176 188.763 36.6619 189.07 37.2756C189.383 37.8892 189.817 38.358 190.374 38.6818C190.931 39 191.582 39.1591 192.326 39.1591C192.809 39.1591 193.249 39.0909 193.647 38.9545C194.045 38.8125 194.388 38.6023 194.678 38.3239C194.968 38.0455 195.19 37.7017 195.343 37.2926L197.755 37.7273C197.562 38.4375 197.215 39.0597 196.715 39.5938C196.221 40.1222 195.599 40.5341 194.849 40.8295C194.104 41.1193 193.255 41.2642 192.3 41.2642Z" fill="white"/>
<defs>
<filter id="filter0_d_602_481" x="0" y="0" width="276" height="70" filterUnits="userSpaceOnUse" color-interpolation-filters="sRGB">
<feFlood flood-opacity="0" result="BackgroundImageFix"/>
<feColorMatrix in="SourceAlpha" type="matrix" values="0 0 0 0 0 0 0 0 0 0 0 0 0 0 0 0 0 0 127 0" result="hardAlpha"/>
<feOffset dy="4"/>
<feGaussianBlur stdDeviation="2"/>
<feComposite in2="hardAlpha" operator="out"/>
<feColorMatrix type="matrix" values="0 0 0 0 0 0 0 0 0 0 0 0 0 0 0 0 0 0 0.25 0"/>
<feBlend mode="normal" in2="BackgroundImageFix" result="effect1_dropShadow_602_481"/>
<feBlend mode="normal" in="SourceGraphic" in2="effect1_dropShadow_602_481" result="shape"/>
</filter>
</defs>
</svg>
